<?xml version="1.0" encoding="utf-8"?>
<!-- Generator: Adobe Illustrator 26.0.0, SVG Export Plug-In . SVG Version: 6.00 Build 0)  -->
<svg version="1.1" id="Layer_1" xmlns="http://www.w3.org/2000/svg" xmlns:xlink="http://www.w3.org/1999/xlink" x="0px" y="0px"
	 viewBox="0 0 500 500" style="enable-background:new 0 0 500 500;" xml:space="preserve">
<style type="text/css">
	.st0{fill:#F8931F;}
	.st1{fill:#343434;}
	.st2{fill:#0070BC;}
	.st3{fill:#F25B26;}
	.st4{fill:#F25B25;}
</style>
<g>
	<path class="st0" d="M14.6,232.61c10.36-2.51,20.61-5.23,30.96-7.3c6.32-1.2,10.25-3.38,11.56-10.36
		c1.42-7.41,3.93-14.72,6.54-21.81c1.96-5.45,1.64-9.38-3.16-13.52c-6.65-5.78-12.32-12.76-18.75-18.75
		c-3.71-3.49-3.49-6.21-1.09-10.25c5.89-9.59,12.21-18.97,19.19-27.8c2.94-3.71,5.45-4.69,10.03-2.51
		c8.5,4.14,17.34,7.41,25.84,11.45c3.71,1.74,6.43,1.64,9.81-1.09c6.98-5.89,14.28-11.45,21.81-16.68
		c4.25-2.83,5.23-6.11,4.36-10.79c-1.53-9.05-2.4-18.1-4.25-27.15c-0.87-4.36-0.22-6.54,4.14-8.4c10.9-4.8,22.02-8.72,33.47-11.99
		c4.36-1.2,6.98-0.33,8.72,3.82c0.33,0.87,0.87,1.53,1.42,2.4c5.67,8.94,8.4,22.35,17.23,26.06c9.49,4.03,22.13,0.44,33.36,0.44
		c4.03,0,6-1.64,7.63-5.02c4.25-8.5,9.05-16.57,12.97-25.19c2.07-4.47,4.69-6,9.16-4.69c10.47,3.16,20.93,6.32,31.51,9.27
		c4.47,1.31,6.32,3.71,5.67,8.61c-1.09,8.5-0.98,17.12-2.62,25.51c-1.31,6.43,0.44,10.58,6.11,13.19c7.85,3.49,9.59,7.96,3.38,14.83
		c-4.25,4.69-6.54,12.87-11.45,14.72c-3.82,1.42-10.25-5.02-15.7-7.41c-45.9-20.72-90.49-18.32-132.03,10.25
		c-41.87,28.89-60.62,70.43-55.82,120.8c4.36,45.9,28.57,80.24,69.01,102.6c8.72,4.8,16.79,11.45,27.58,11.56
		c3.6,1.09,5.23,2.94,2.4,6.43c-2.18,2.62-5.12,4.47-8.4,5.23c-9.7,2.51-19.41,4.91-29,7.52c-4.8,1.31-6.21-2.73-8.94-4.58
		c-7.63-5.02-15.59-9.49-22.68-15.15c-5.45-4.25-9.7-4.14-15.37-0.87c-7.3,4.25-15.26,7.52-22.68,11.67
		c-3.82,2.07-6.32,1.64-9.27-1.74c-7.63-8.72-14.61-17.88-21.26-27.48c-2.73-3.93-2.73-6.76,0.65-10.25
		c6.32-6.65,11.99-13.85,18.32-20.39c3.38-3.49,4.25-6.65,2.29-11.23c-4.14-10.03-5.12-23.55-12.32-29.66
		c-7.3-6.11-20.72-5.67-31.51-6.65c-6.65-0.65-7.09-5.12-9.05-9.16C14.6,258.23,14.6,245.47,14.6,232.61z"/>
	<path class="st1" d="M137.48,251.47c0,5.23,0,10.36,0,15.59c0.11,8.5-2.29,17.66,8.94,22.02c2.94,1.09,5.23,5.34,4.91,8.4
		c-0.76,8.29,4.91,10.79,10.47,13.96c11.12,6.32,22.35,12.43,33.25,19.19c4.58,2.83,7.96,3.93,12.87,0.11
		c4.91-4.03,8.07-2.73,7.63,4.58c-0.44,8.5-0.33,17.12-0.11,25.62c0.22,7.2-3.16,6.76-7.85,4.03c-5.89-3.49-9.59-8.61-9.7-15.59
		c0-4.03-1.74-5.89-5.02-7.74c-13.52-7.63-27.04-15.37-40.34-23.22c-3.38-1.96-5.45-1.74-8.83,0.44
		c-9.92,6.76-21.91,4.25-28.02-5.02c-6.11-9.38-3.6-21.26,6.65-27.69c3.93-2.4,4.47-5.02,4.36-8.83
		c-0.11-17.12-0.11-34.13,0.11-51.24c0.11-4.36-0.98-6.98-5.02-9.49c-9.7-6.11-12.1-17.88-6.32-27.04
		c6.11-9.59,18.21-12.43,27.91-5.45c4.25,3.05,6.65,1.96,10.25-0.11c12.65-7.41,25.19-14.83,38.05-21.91
		c4.03-2.29,6.11-4.47,6.21-9.7c0.22-10.68,8.4-18.21,18.75-18.53c10.9-0.33,19.95,6.87,20.06,17.99c0.11,6.32,3.16,8.4,7.41,10.9
		c8.07,4.8,16.9,8.5,23.99,14.94c1.85,1.64,6.32,2.18,3.16,6.76c-2.94,4.03-5.45,3.27-9.16,0.98c-7.74-4.8-15.92-9.05-23.66-13.74
		c-4.14-2.51-7.52-4.03-12.32-0.76c-5.02,3.49-11.78,3.71-16.57,0.44c-5.89-4.03-9.92-1.85-14.83,1.09
		c-12.54,7.41-25.29,14.72-37.94,21.91c-3.16,1.74-5.02,3.6-5.02,7.63c0,6.65-3.6,11.99-9.27,14.72c-4.91,2.4-5.34,5.78-5.23,10.14
		C137.7,234.9,137.48,243.18,137.48,251.47z"/>
	<path class="st2" d="M218.05,249.83c0-21.91-0.11-43.94,0.11-65.85c0-4.47-0.55-6.76-6-5.78c-30.09,5.23-51.57,21.59-62.47,50.04
		c-10.36,27.15-4.69,52.01,13.63,74.25c2.07,2.51,3.82,6.98,8.29,2.07c2.94-3.27,4.91-5.23,0.76-9.38
		c-7.85-7.96-12.21-17.99-14.83-28.89c-1.2-4.91,0-7.09,5.67-6.98c12.21,0.33,24.42,0.44,36.63,0c5.89-0.22,7.09,1.85,6.98,7.3
		c-0.33,16.46,0,32.93-0.22,49.39c0,4.36,0.65,6.54,5.89,6.54c5.67,0.11,5.45-2.94,5.45-6.87
		C218.05,293.77,218.05,271.75,218.05,249.83z M199.62,246.35c-12.76-0.33-25.62-0.33-38.38,0c-4.91,0.11-5.34-1.96-4.8-6
		c2.73-19.73,23.88-43.72,43.39-49.06c4.03-1.09,6.21-0.98,6,4.25c-0.33,7.63-0.11,15.26-0.11,22.9c0,7.3-0.33,14.61,0.11,21.91
		C206.06,245.15,204.31,246.45,199.62,246.35z"/>
	<path class="st2" d="M344.41,253.54c0-20.5,0.11-40.89,0-61.38c0-4.14,0.22-6.76,5.67-6.76c5.45,0,5.67,2.73,5.67,6.76
		c-0.11,15.59,0.11,31.18-0.22,46.66c-0.11,5.34,1.09,7.63,6.98,7.41c11.34-0.44,22.57-0.55,33.91,0c7.09,0.33,7.3-2.29,5.78-8.07
		c-3.93-14.72-11.45-26.93-24.1-35.54c-4.8-3.27-4.8-6-1.96-10.25c3.6-5.45,6.21-0.98,8.72,0.76
		c40.78,28.78,40.23,91.91-0.98,119.49c-2.51,1.64-5.23,5.12-8.07,0.11c-1.96-3.6-3.92-6.11,1.2-9.49
		c13.85-9.16,21.91-22.46,25.73-38.6c1.2-5.02,0.22-7.09-5.56-6.98c-11.56,0.44-23.22,0.44-34.78,0c-6.11-0.22-6.98,2.18-6.87,7.41
		c0.33,16.46,0,32.93,0.11,49.39c0,4.36,0.11,7.52-6,7.41c-5.89-0.11-5.34-3.38-5.34-7.2C344.41,294.43,344.41,273.93,344.41,253.54
		z"/>
	<path class="st3" d="M137.48,391.9c3.93,2.94,7.85,2.83,12.32,1.2c9.49-3.49,20.06-3.71,29.22-8.4c3.16-1.53,7.2-3.27,2.4-7.52
		c9.92,1.09,19.73,3.93,29.87,3.71c3.16-0.11,4.36,1.31,4.36,4.36c-0.11,4.58-0.44,9.16,0.11,13.74
		c1.09,9.05-0.65,14.94-11.67,12.87c-3.93-0.76-5.12,2.18-6.54,4.91c-4.14,8.18-8.83,16.03-12.65,24.31
		c-2.29,5.02-5.23,6.98-10.47,5.34c-10.47-3.16-20.93-6.32-31.4-9.27c-4.58-1.31-6-4.03-5.45-8.72c0.98-9.38,1.31-18.86,2.18-28.24
		C139.77,397.24,139.88,394.3,137.48,391.9z"/>
	<path class="st2" d="M256.76,299.88c3.6-3.93,6.87-6.32,8.72-9.49c3.16-5.34,5.89-4.03,10.03-1.2c5.67,3.93,0.65,6.32-1.09,8.61
		c-10.9,13.74-24.75,23.22-42.19,27.15c-3.16,0.76-6.21,1.64-6.76-3.05c-0.33-3.49-1.96-7.63,3.93-8.29
		c1.53-0.11,2.94-0.55,4.47-0.98c7.3-1.64,10.79-5.02,10.58-13.63c-0.65-29.87-0.87-59.86,0.11-89.62
		c0.33-10.58-3.49-14.94-13.08-16.25c-3.49-0.44-7.2-0.44-6.43-6.21c0.65-4.69,1.64-6.54,6.65-5.45
		c17.99,3.93,32.82,12.65,44.16,27.26c2.07,2.62,3.71,4.8-0.55,7.09c-3.16,1.74-5.78,4.58-9.05-0.22
		c-2.29-3.38-5.45-6.21-9.49-10.58C256.76,237.19,256.76,267.61,256.76,299.88z"/>
	<path class="st2" d="M485.5,186.93c0.87,5.23-3.27,4.47-6.32,5.34c-23.77,6.32-38.92,21.48-46.01,44.92
		c-1.96,6.43-0.98,9.49,6.76,8.83c3.38-0.33,8.29-2.51,10.58,2.07c2.94,5.67-0.44,9.49-7.85,9.59c-12.21,0.11-12.43,0.22-8.72,12.1
		c7.09,22.9,22.68,36.96,45.57,42.85c4.8,1.2,6.54,2.29,5.67,7.52c-1.09,6.65-5.45,4.58-8.94,3.82
		c-33.14-7.09-57.24-38.6-56.59-73.48c0.55-33.25,26.49-64,58.98-69.78C483.64,179.51,485.39,181.15,485.5,186.93z"/>
	<path class="st2" d="M335.69,180.93c2.51-0.44,2.51,2.62,2.94,5.34c0.44,3.16,0.76,5.56-3.82,6.43
		c-9.05,1.64-17.44,5.34-24.86,11.01c-20.39,15.92-29,36.96-23.77,62.15c5.12,24.75,21.04,40.56,45.57,47.43
		c3.71,1.09,8.07,0.76,6.98,6.87c-0.76,4.47-1.85,6.21-6.98,5.12c-32.93-6.65-58.44-37.29-58.66-71.3
		c-0.22-34.23,24.31-65.31,57.13-72.29C331.55,181.47,332.75,181.37,335.69,180.93z"/>
	<path class="st1" d="M454.86,378.38l-0.55-0.87h-3.16l0.76,1.42l3.16,5.78h3.16L454.86,378.38z M457.04,371.29
		c-0.44-0.76-1.09-1.31-1.85-1.74c-0.87-0.44-1.85-0.65-3.05-0.65h-6v15.81h2.83v-5.78h3.05c1.09,0,1.96-0.11,2.73-0.44
		c0.11,0,0.22-0.11,0.33-0.11c0.87-0.44,1.42-0.98,1.85-1.74s0.65-1.64,0.65-2.62C457.69,372.93,457.48,372.06,457.04,371.29z
		 M449.08,371.29h2.62c0.65,0,1.31,0.11,1.74,0.33c0.44,0.22,0.76,0.55,0.98,0.87c0.22,0.44,0.33,0.87,0.33,1.42
		s-0.11,0.98-0.33,1.42c-0.22,0.33-0.55,0.65-0.98,0.87c-0.44,0.22-1.09,0.33-1.74,0.33h-2.62V371.29z M434.25,382.3v-4.36h6.87
		v-2.4h-6.87v-4.25h7.41v-2.4h-10.36v15.81h10.36v-2.4H434.25z M414.74,368.89v2.4h4.91v13.41h2.83v-13.41h4.91v-2.4H414.74z
		 M410.81,371.4c-0.44-0.76-1.09-1.42-1.85-1.85c-0.87-0.44-1.85-0.65-3.05-0.65h-6v15.81h2.83v-5.34h3.05
		c1.2,0,2.29-0.22,3.05-0.65c0.87-0.44,1.42-1.09,1.85-1.85c0.44-0.76,0.65-1.64,0.65-2.73
		C411.47,373.04,411.25,372.16,410.81,371.4z M408.2,375.54c-0.22,0.44-0.55,0.76-0.98,0.98c-0.44,0.22-1.09,0.33-1.74,0.33h-2.62
		v-5.78h2.62c0.76,0,1.31,0.11,1.74,0.33c0.44,0.22,0.76,0.55,0.98,0.98c0.22,0.44,0.33,0.87,0.33,1.53
		C408.52,374.67,408.41,375.11,408.2,375.54z M384.75,378.49v2.29h8.4v-2.29H384.75z M390.75,368.89h-3.49l-5.56,15.81h3.05
		l1.31-3.93l0.76-2.29l2.18-6.43h0.11l2.18,6.43l0.76,2.29l1.31,3.93h3.05L390.75,368.89z M375.05,368.89v6.76h-7.3v-6.76h-2.83
		v15.81h2.83v-6.76h7.3v6.76h2.94v-15.81H375.05z M357.28,380.67c-0.22,0.33-0.55,0.65-0.87,0.87c-0.33,0.22-0.65,0.44-1.09,0.55
		s-0.87,0.22-1.31,0.22c-0.87,0-1.64-0.22-2.29-0.65s-1.2-1.09-1.53-1.85c-0.33-0.87-0.55-1.85-0.55-3.05c0-1.2,0.22-2.18,0.55-3.05
		c0.33-0.87,0.87-1.42,1.53-1.85c0.65-0.44,1.42-0.65,2.29-0.65c0.55,0,0.98,0.11,1.31,0.22c0.44,0.11,0.76,0.33,1.09,0.55
		c0.33,0.22,0.65,0.55,0.87,0.98c0.22,0.33,0.33,0.76,0.44,1.31h2.94c-0.11-0.87-0.33-1.64-0.76-2.4c-0.33-0.65-0.87-1.31-1.42-1.74
		s-1.31-0.87-2.07-1.09c-0.76-0.22-1.64-0.33-2.51-0.33c-1.42,0-2.62,0.33-3.71,0.98s-1.96,1.53-2.62,2.83
		c-0.65,1.2-0.98,2.73-0.98,4.36c0,1.74,0.33,3.16,0.98,4.36s1.53,2.18,2.62,2.83s2.29,0.98,3.71,0.98c0.98,0,1.74-0.11,2.62-0.44
		c0.76-0.33,1.42-0.65,2.07-1.2c0.55-0.55,1.09-1.09,1.42-1.74c0.33-0.65,0.55-1.31,0.65-2.07h-2.94
		C357.72,379.91,357.61,380.34,357.28,380.67z M323.59,368.89v2.4h4.91v13.41h2.83v-13.41h4.91v-2.4H323.59z M316.72,368.89v10.79
		h-0.11l-7.41-10.79h-2.62v15.81h2.83v-10.79h0.11l7.52,10.79h2.51v-15.81H316.72z M294.7,382.3v-4.36h6.87v-2.4h-6.87v-4.25h7.41
		v-2.4h-10.36v15.81h10.36v-2.4H294.7z M286.63,372.49c-0.65-1.2-1.53-2.07-2.62-2.73c-1.09-0.65-2.51-0.98-4.03-0.98h-5.45v15.81
		h5.34c1.64,0,2.94-0.33,4.14-0.98c1.09-0.65,2.07-1.53,2.62-2.73c0.65-1.2,0.98-2.62,0.98-4.25
		C287.61,375,287.28,373.69,286.63,372.49z M284.12,379.8c-0.33,0.76-0.98,1.42-1.64,1.85c-0.76,0.44-1.64,0.55-2.73,0.55h-2.4
		v-10.9h2.4c1.09,0,1.96,0.22,2.73,0.55c0.76,0.33,1.31,0.98,1.64,1.85c0.33,0.76,0.55,1.85,0.55,3.05S284.56,379.03,284.12,379.8z
		 M267,368.89v10.14c0,0.65-0.11,1.2-0.44,1.74c-0.33,0.55-0.65,0.87-1.2,1.2c-0.55,0.33-1.2,0.44-1.85,0.44
		c-0.65,0-1.31-0.11-1.85-0.44c-0.55-0.33-0.98-0.65-1.2-1.2c-0.33-0.55-0.44-1.09-0.44-1.74v-10.14h-2.83v10.36
		c0,1.09,0.22,2.18,0.76,3.05s1.31,1.53,2.29,1.96s2.07,0.76,3.38,0.76s2.4-0.22,3.38-0.76c0.98-0.44,1.74-1.2,2.29-1.96
		c0.55-0.87,0.76-1.85,0.76-3.05v-10.36H267z M240.4,368.89v2.4h4.91v13.41h2.83v-13.41h4.91v-2.4H240.4z M236.58,378.49
		c-0.22-0.55-0.65-0.98-1.09-1.31c-0.44-0.33-0.98-0.65-1.53-0.87c-0.55-0.22-1.09-0.44-1.74-0.55l-1.53-0.33
		c-0.33-0.11-0.65-0.22-0.98-0.33c-0.33-0.11-0.65-0.22-0.87-0.44c-0.22-0.22-0.44-0.33-0.65-0.65c-0.11-0.22-0.22-0.55-0.22-0.87
		c0-0.44,0.11-0.76,0.33-1.09c0.22-0.33,0.55-0.55,0.98-0.76c0.44-0.22,0.98-0.22,1.53-0.22c0.87,0,1.53,0.22,2.07,0.55
		c0.55,0.33,0.87,0.87,0.87,1.64h2.73c0-0.87-0.22-1.64-0.76-2.4c-0.44-0.65-1.2-1.2-1.96-1.64c-0.87-0.44-1.85-0.55-2.94-0.55
		s-2.07,0.22-2.94,0.55c-0.87,0.33-1.53,0.87-2.07,1.64c-0.55,0.65-0.76,1.53-0.76,2.4c0,1.09,0.33,2.07,1.09,2.73
		c0.76,0.65,1.85,1.2,3.05,1.53l1.85,0.44c0.55,0.11,1.09,0.33,1.53,0.55c0.44,0.22,0.76,0.44,0.98,0.65
		c0.22,0.22,0.33,0.65,0.33,0.98c0,0.44-0.11,0.87-0.44,1.2c-0.22,0.33-0.65,0.55-1.09,0.76c-0.44,0.22-0.98,0.22-1.64,0.22
		c-0.55,0-1.09-0.11-1.64-0.22c-0.55-0.22-0.87-0.44-1.2-0.87c-0.33-0.33-0.44-0.87-0.55-1.42h-2.51c0,1.09,0.33,1.96,0.87,2.73
		s1.2,1.31,2.18,1.64c0.87,0.44,1.96,0.55,3.16,0.55c1.31,0,2.4-0.22,3.27-0.55c0.87-0.44,1.64-0.98,2.07-1.64
		c0.44-0.76,0.76-1.53,0.76-2.4C236.91,379.58,236.8,378.92,236.58,378.49z M430.76,348.72v3.27h11.67v-3.27H430.76z M439.16,335.2
		h-5.02l-7.85,22.24h4.25l1.85-5.45l1.09-3.27l3.05-8.94h0.22l3.05,8.94l1.09,3.27l1.85,5.45h4.25L439.16,335.2z M413.65,354.07
		V335.2h-4.03v22.24h13.85v-3.38H413.65z M395.11,354.07v-6.11h9.7v-3.38h-9.7v-6h10.36v-3.38h-14.39v22.24h14.5v-3.38
		L395.11,354.07L395.11,354.07z M379.74,345.23l8.61-9.92h-4.91l-8.61,10.25h-0.22v-10.25h-4.03v22.24h4.03v-6.65l2.4-2.94
		l6.65,9.49h4.8L379.74,345.23z M362.73,348.61l-0.65-1.31h-4.36l0.98,1.96l4.36,8.07h4.47L362.73,348.61z M365.89,338.58
		c-0.65-1.09-1.53-1.85-2.62-2.51c-1.2-0.55-2.62-0.87-4.25-0.87h-8.29v22.24h4.03v-8.18h4.25c1.53,0,2.83-0.22,3.93-0.65
		c0.11,0,0.33-0.11,0.44-0.22c1.2-0.55,2.07-1.42,2.62-2.4c0.55-1.09,0.87-2.29,0.87-3.71
		C366.76,340.87,366.44,339.67,365.89,338.58z M354.66,338.58h3.71c0.98,0,1.85,0.11,2.4,0.44c0.65,0.33,1.09,0.76,1.42,1.31
		c0.33,0.55,0.44,1.2,0.44,1.96c0,0.76-0.11,1.42-0.44,1.96c-0.33,0.55-0.76,0.98-1.42,1.2c-0.65,0.33-1.42,0.44-2.4,0.44h-3.71
		V338.58z M342.23,335.2v14.17c0,0.98-0.22,1.74-0.65,2.51c-0.44,0.76-0.98,1.31-1.74,1.74c-0.76,0.44-1.64,0.65-2.62,0.65
		c-0.98,0-1.96-0.22-2.62-0.65c-0.76-0.44-1.31-0.98-1.74-1.74c-0.44-0.76-0.65-1.53-0.65-2.51V335.2h-4.03v14.5
		c0,1.64,0.33,2.94,1.09,4.25c0.76,1.2,1.74,2.18,3.16,2.83c1.31,0.65,2.94,0.98,4.8,0.98c1.74,0,3.38-0.33,4.69-0.98
		c1.31-0.65,2.4-1.64,3.16-2.83c0.76-1.2,1.09-2.62,1.09-4.25v-14.5H342.23z M323.04,340.22c-0.87-1.74-2.07-3.05-3.6-3.93
		c-1.53-0.87-3.27-1.31-5.23-1.31c-1.96,0-3.71,0.44-5.23,1.31c-1.53,0.87-2.73,2.18-3.6,3.93c-0.87,1.74-1.31,3.71-1.31,6.11
		c0,2.4,0.44,4.47,1.31,6.11c0.87,1.74,2.07,3.05,3.6,3.93c1.53,0.87,3.27,1.31,5.23,1.31c1.96,0,3.71-0.44,5.23-1.31
		c1.53-0.87,2.73-2.18,3.6-3.93c0.87-1.74,1.31-3.82,1.31-6.11C324.35,344.03,323.92,341.85,323.04,340.22z M319.56,350.58
		c-0.55,1.2-1.2,2.07-2.18,2.62c-0.98,0.55-1.96,0.87-3.16,0.87c-1.2,0-2.29-0.33-3.16-0.87c-0.87-0.55-1.64-1.42-2.18-2.62
		c-0.55-1.2-0.76-2.62-0.76-4.25c0-1.64,0.22-3.05,0.76-4.25c0.55-1.2,1.31-2.07,2.18-2.62c0.87-0.55,1.96-0.87,3.16-0.87
		c1.2,0,2.29,0.33,3.16,0.87c0.87,0.55,1.64,1.53,2.18,2.62c0.55,1.2,0.76,2.62,0.76,4.25C320.32,348.07,320.1,349.49,319.56,350.58
		z M296.88,348.61l-0.65-1.31h-4.36l1.09,1.96l4.36,8.07h4.47L296.88,348.61z M299.93,338.58c-0.55-1.09-1.42-1.85-2.62-2.51
		c-1.2-0.55-2.62-0.87-4.25-0.87h-8.29v22.24h4.03v-8.18h4.25c1.53,0,2.83-0.22,3.93-0.65c0.11,0,0.33-0.11,0.44-0.22
		c1.2-0.55,2.07-1.42,2.62-2.4c0.65-1.09,0.87-2.29,0.87-3.71C300.91,340.87,300.58,339.67,299.93,338.58z M288.7,338.58h3.71
		c0.98,0,1.85,0.11,2.4,0.44c0.65,0.33,1.09,0.76,1.42,1.31c0.33,0.55,0.44,1.2,0.44,1.96c0,0.76-0.11,1.42-0.44,1.96
		c-0.33,0.55-0.76,0.98-1.42,1.2c-0.65,0.33-1.42,0.44-2.4,0.44h-3.71V338.58z M255.99,335.2v3.38h6.87v18.86h4.03v-18.86h6.87
		v-3.38H255.99z M248.58,335.2v22.24h4.03V335.2H248.58z M240.18,335.2v15.15h-0.11l-10.47-15.15h-3.6v22.24h4.03v-15.15h0.22
		l10.47,15.15h3.6V335.2H240.18z"/>
	<path class="st4" d="M134.21,96.76c0.98-3.16,1.96-5.89,2.83-8.4c2.18-5.89,3.27-8.94,5.56-12.21c0.87-1.42,2.4-3.16,5.45-6.65
		c3.05-3.6,4.47-4.91,6.21-6c2.29-1.53,4.03-1.85,3.93-2.07c-0.11-0.44-8.07,1.2-15.48,4.36c-1.74,0.76-4.58,1.96-7.52,3.49
		c-1.74,0.87-3.16,1.64-4.25,2.18"/>
</g>
</svg>
